{"title":"Greedy 1994 DvDrip XviD AC3 greenbud1969","uid":11815918,"size":1524134847,"categoryP":"video","categoryS":"movies","magnet":"?xt=urn:btih:7533d6f5470183c03ca5c8308c2ae44ee2ab60d9&amp;dn=Greedy+1994+DvDrip+XviD+AC3+greenbud1969&amp;tr=udp%3A%2F%2Ftracker.openbittorrent.com%3A80&amp;tr=udp%3A%2F%2Fopen.demonii.com%3A1337&amp;tr=udp%3A%2F%2Ftracker.coppersurfer.tk%3A6969&amp;tr=udp%3A%2F%2Fexodus.desync.com%3A6969","seeders":9,"leechers":2,"uploader":"greenbud1969","files":4,"time":1429091531,"description":"General\nComplete name                            : Greedy 1994 DvDrip XviD AC3 greenbud1969\nFormat                                   : AVI\nFormat/Info                              : Audio Video Interleave\nFile size                                : 1.40 GiB\nDuration                                 : 1h 52mn\nOverall bit rate                         : 1 789 Kbps\nWriting application                      : VirtualDubMod 1.5.4.1 (build 2178/release)\nWriting library                          : VirtualDubMod build 2178/release\n\nVideo\nID                                       : 0\nFormat                                   : MPEG-4 Visual\nFormat profile                           : Advanced Simple@L5\nFormat settings, BVOP                    : 1\nFormat settings, QPel                    : No\nFormat settings, GMC                     : No warppoints\nFormat settings, Matrix                  : Custom\nCodec ID                                 : XVID\nCodec ID/Hint                            : XviD\nDuration                                 : 1h 52mn\nBit rate                                 : 1 335 Kbps\nWidth                                    : 720 pixels\nHeight                                   : 400 pixels\nDisplay aspect ratio                     : 16:9\nFrame rate                               : 23.976 fps\nColor space                              : YUV\nChroma subsampling                       : 4:2:0\nBit depth                                : 8 bits\nScan type                                : Progressive\nCompression mode                         : Lossy\nBits/(Pixel*Frame)                       : 0.193\nStream size                              : 1.05 GiB (75%)\nWriting library                          : XviD 1.2.1 (UTC 2008-12-04)\n\nAudio\nID                                       : 1\nFormat                                   : AC-3\nFormat/Info                              : Audio Coding 3\nMode extension                           : CM (complete main)\nFormat settings, Endianness              : Big\nCodec ID                                 : 2000\nDuration                                 : 1h 52mn\nBit rate mode                            : Constant\nBit rate                                 : 448 Kbps\nChannel(s)                               : 6 channels\nChannel positions                        : Front: L C R, Side: L R, LFE\nSampling rate                            : 48.0 KHz\nBit depth                                : 16 bits\nCompression mode                         : Lossy\nDelay relative to video                  : 15ms\nStream size                              : 359 MiB (25%)\nAlignment                                : Split accross interleaves\nInterleave, duration                     : 96 ms (2.30 video frames)\nInterleave, preload duration             : 96 ms\nLanguage                                 : English\n\n\nIMDb Link:  &lt;a href=&quot; http://www.imdb.com/title/tt0109936/&quot; rel=&quot;nofollow&quot; target=&quot;_NEW&quot;&gt; http://www.imdb.com/title/tt0109936/&lt;/a&gt;\n\nMeet the McTeagues. They've come to stake a claim in their wealthy uncle's will...only he's not dead yet! Michael J. Fox, Kirk Douglas and Nancy Travis star in this wickedly funny comedy of heirs. As his family tries to get rich the old-fashioned way - groveling - Uncle Joe watches them elevate back-stabbing and brown-nosing to a whole new level.\n\n\nNotes\n\nIf your want to convert this movie or any of my other releases I recommend using ConvertXtoDVD or you can burn as a data disc with any programs such as CyberLink Power2Go, Roxio or Nero \n\n\nAll stand-alone divx players compatible\n\n\nSample and Optional English .srt Included\n\n\nScreenshots &amp; Thumbnail\n\n    &lt;a href=&quot;\nhttp://lookpic.com/O/i2/1266/2qSKqTkW.jpeg&quot; rel=&quot;nofollow&quot; target=&quot;_NEW&quot;&gt;\nhttp://lookpic.com/O/i2/1266/2qSKqTkW.jpeg&lt;/a&gt;\n &lt;a href=&quot;\nhttp://lookpic.com/O/i2/1302/H8BebHZ.jpeg&quot; rel=&quot;nofollow&quot; target=&quot;_NEW&quot;&gt;\nhttp://lookpic.com/O/i2/1302/H8BebHZ.jpeg&lt;/a&gt;\n &lt;a href=&quot;\nhttp://lookpic.com/O/i2/927/DjzA6tqE.jpeg&quot; rel=&quot;nofollow&quot; target=&quot;_NEW&quot;&gt;\nhttp://lookpic.com/O/i2/927/DjzA6tqE.jpeg&lt;/a&gt;\n &lt;a href=&quot;\nhttp://lookpic.com/O/i2/216/Rhr9gpVH.jpeg&quot; rel=&quot;nofollow&quot; target=&quot;_NEW&quot;&gt;\nhttp://lookpic.com/O/i2/216/Rhr9gpVH.jpeg&lt;/a&gt;\n &lt;a href=&quot;\nhttp://lookpic.com/O/i2/516/o13scjBk.jpeg&quot; rel=&quot;nofollow&quot; target=&quot;_NEW&quot;&gt;\nhttp://lookpic.com/O/i2/516/o13scjBk.jpeg&lt;/a&gt;\n &lt;a href=&quot;\nhttp://lookpic.com/O/i2/425/XmGRJFbm.jpeg&quot; rel=&quot;nofollow&quot; target=&quot;_NEW&quot;&gt;\nhttp://lookpic.com/O/i2/425/XmGRJFbm.jpeg&lt;/a&gt;\n &lt;a href=&quot;\nhttp://lookpic.com/O/i2/864/jPFHni9p.jpeg&quot; rel=&quot;nofollow&quot; target=&quot;_NEW&quot;&gt;\nhttp://lookpic.com/O/i2/864/jPFHni9p.jpeg&lt;/a&gt;\n\n\nGREETZ\n\n\nBlackjesus, Hive-CM8, ViP3R, THC, SANTi, CRYS, AQOS, EVO, playXD, SuperNova, MiLLENiUM, MAJESTiC, FUM, AFG and respect to all pirate groups and encoders past and present. Sharing is caring.\n\n\nALSO IF YOU HAVE ANY REQUESTS DON'T HESITATE TO ASK. I MIGHT HAVE WHAT YOUR LOOKING FOR. YOU NEVER KNOW. IT NEVER HURTS TO ASK. EMAIL ME AT greenbud1969 AT hotmail dot com OR LEAVE REQUESTS IN COMMENTS","torrent":{"xt":"urn:btih:7533d6f5470183c03ca5c8308c2ae44ee2ab60d9","amp;dn":"Greedy+1994+DvDrip+XviD+AC3+greenbud1969","amp;tr":["udp%3A%2F%2Ftracker.openbittorrent.com%3A80","udp%3A%2F%2Fopen.demonii.com%3A1337","udp%3A%2F%2Ftracker.coppersurfer.tk%3A6969","udp%3A%2F%2Fexodus.desync.com%3A6969"],"infoHash":"7533d6f5470183c03ca5c8308c2ae44ee2ab60d9","infoHashBuffer":{"type":"Buffer","data":[117,51,214,245,71,1,131,192,60,165,200,48,140,42,228,78,226,171,96,217]},"announce":[],"urlList":[]}}